<?xml version="1.0"?>
<svg xmlns="http://www.w3.org/2000/svg" xmlns:xlink="http://www.w3.org/1999/xlink" xmlns:svgjs="http://svgjs.com/svgjs" version="1.1" width="512" height="512" x="0" y="0" viewBox="0 0 467.207 467.207" style="enable-background:new 0 0 512 512" xml:space="preserve" class=""><g><link type="text/css" rel="stylesheet" id="dark-mode-general-link"/><link type="text/css" rel="stylesheet" id="dark-mode-custom-link"/><style type="text/css" id="dark-mode-custom-style"/>
<g xmlns="http://www.w3.org/2000/svg">
	<g>
		<path style="" d="M439.431,329.317c6.665-15.144,11.299-30.255,14.038-45.211c0.772,0.211,1.577,0.39,2.544,0.39    c0.61,0,1.114-0.13,1.642-0.228c1.926-0.341,3.406-1.211,4.503-2.43c2.479-2.788,3.178-7.096,3.577-9.657    c5.186-33.343,2.26-164.1-105.135-200.516c-7.511-10.892-38.985-48.487-115.661-48.487c-12.485,0-25.743,1.024-39.424,3.048    c-3.219-0.406-12.331-1.39-25.125-1.39c-31.555,0-91.024,6.21-134.788,47.747L30.255,87.143l13.802-0.35l5.284-0.138l2.065-0.049    c0,0,1.309-0.033,3.56-0.081c-14.152,14.713-26.987,33.319-37.44,57.046c-47.926,108.882,4.641,219.35,130.821,274.892    c37.977,16.72,77.457,25.564,114.174,25.564C344.042,444.036,406.868,403.296,439.431,329.317z M180.389,41.086    c14.477,0,23.898,1.366,23.996,1.382l1.203,0.171l1.195-0.179c7.047-1.065,13.941-1.813,20.679-2.317    c5.714-0.431,11.307-0.667,16.737-0.683c0.236,0,0.496-0.033,0.732-0.033c6.454,0,12.412,0.374,18.151,0.894    c43.585,3.983,67.061,21.614,77.725,32.799c4.251,4.463,6.487,7.812,7.153,8.901c0.089,0.146,0.219,0.358,0.252,0.415l1.569,2.804    l3.056,0.975c1.536,0.488,2.959,1.122,4.463,1.658c6.852,2.447,13.437,5.259,19.582,8.681c17.224,9.6,31.547,23.142,43.041,40.277    c3.52,5.243,6.861,10.713,9.827,16.647c1.691,3.39,3.227,6.82,4.674,10.258c3.495,8.316,6.3,16.72,8.527,25.004    c3.292,12.266,5.349,24.231,6.535,35.115c-22.102-38.391-63.622-69.759-66.004-71.54l-5.536-4.137l-4.975,4.796    c-27.182,26.223-119.165,36.546-166.042,39.212l46.13-95.836l-0.992-3.089c-2.422-7.584-7.462-23.353-159.84-23.353    c-6.348,0-12.225,0.033-17.428,0.073C111.744,45.208,155.459,41.086,180.389,41.086z M107.663,153.537    c-25.646,35.66-31.75,75.701-9.584,114.792c12.209,21.524-20.899,40.83-33.091,19.346    c-28.507-50.251-23.979-106.809,9.584-153.476C88.854,114.325,122.124,133.427,107.663,153.537z" fill="#e56f74" data-original="#010002" class=""/>
		<path style="" d="M340.872,124.851c15.452,0.358,15.42-23.597,0-23.955c-0.089,0-1.951-0.228-2.398-0.236    c-0.358-0.089-0.715-0.187-1.065-0.301c-0.122-0.073-0.236-0.146-0.577-0.325c0.008,0.041,0.049,0.114,0.098,0.195    c-0.016-0.008-0.041-0.008-0.065-0.016c0.041,0.016,0.024,0.008,0.065,0.024c0.065,0.106-0.008,0.081,0.13,0.26    c-1.398-1.829-0.935-1.284-1.406-2.788c-4.658-14.664-27.783-8.397-23.093,6.365C316.738,117.259,327.151,124.534,340.872,124.851    z" fill="#e56f74" data-original="#010002" class=""/>
		<path style="" d="M336.743,99.986c0.057,0.033,0.041,0.024,0.089,0.049l-0.008-0.016    C336.775,99.994,336.799,100.018,336.743,99.986z" fill="#e56f74" data-original="#010002" class=""/>
		<path style="" d="M336.824,100.027C338.417,100.913,336.718,99.531,336.824,100.027L336.824,100.027z" fill="#e56f74" data-original="#010002" class=""/>
	</g>
</g>
<g xmlns="http://www.w3.org/2000/svg">
</g>
<g xmlns="http://www.w3.org/2000/svg">
</g>
<g xmlns="http://www.w3.org/2000/svg">
</g>
<g xmlns="http://www.w3.org/2000/svg">
</g>
<g xmlns="http://www.w3.org/2000/svg">
</g>
<g xmlns="http://www.w3.org/2000/svg">
</g>
<g xmlns="http://www.w3.org/2000/svg">
</g>
<g xmlns="http://www.w3.org/2000/svg">
</g>
<g xmlns="http://www.w3.org/2000/svg">
</g>
<g xmlns="http://www.w3.org/2000/svg">
</g>
<g xmlns="http://www.w3.org/2000/svg">
</g>
<g xmlns="http://www.w3.org/2000/svg">
</g>
<g xmlns="http://www.w3.org/2000/svg">
</g>
<g xmlns="http://www.w3.org/2000/svg">
</g>
<g xmlns="http://www.w3.org/2000/svg">
</g>
</g></svg>
