<svg height="512pt" viewBox="0 -71 512.001 512" width="512pt" xmlns="http://www.w3.org/2000/svg"><path d="m442 181.039062c0 5.523438-4.476562 10-10 10s-10-4.476562-10-10c0-5.523437 4.476562-10 10-10s10 4.476563 10 10zm0 0"/><path d="m412 121.039062c0 5.523438-4.476562 10-10 10s-10-4.476562-10-10c0-5.523437 4.476562-10 10-10s10 4.476563 10 10zm0 0"/><path d="m382 181.039062c0 5.523438-4.476562 10-10 10s-10-4.476562-10-10c0-5.523437 4.476562-10 10-10s10 4.476563 10 10zm0 0"/><path d="m150 181.039062c0 5.523438-4.476562 10-10 10s-10-4.476562-10-10c0-5.523437 4.476562-10 10-10s10 4.476563 10 10zm0 0"/><path d="m120 121.039062c0 5.523438-4.476562 10-10 10s-10-4.476562-10-10c0-5.523437 4.476562-10 10-10s10 4.476563 10 10zm0 0"/><path d="m90 181.039062c0 5.523438-4.476562 10-10 10s-10-4.476562-10-10c0-5.523437 4.476562-10 10-10s10 4.476563 10 10zm0 0"/><path d="m0 261.039062c0 18.6875 7.277344 36.269532 20.503906 49.503907 11.722656 11.714843 26.867188 18.75 43.167969 20.203125l11.851563 23.703125c5.117187 10.230469 15.402343 16.589843 26.835937 16.589843h307.28125c11.433594 0 21.71875-6.359374 26.835937-16.589843l11.855469-23.710938c35.640625-3.210937 63.667969-33.238281 63.667969-69.699219 0-5.523437-4.476562-10-10-10h-17.066406c17.527344-10.785156 27.066406-24.773437 27.066406-40 0-1.785156-.476562-3.535156-1.378906-5.074218l-15.089844-25.648438c-5.640625-9.589844-79.261719-134.746094-84.910156-144.351562-1.796875-3.050782-5.074219-4.929688-8.621094-4.929688-3.542969 0-6.820312 1.875-8.617188 4.929688l-43.933593 74.6875c-21.628907-22.433594-50.324219-36.226563-81.425781-39.0625.007812-.5.011718-1.007813.011718-1.53125 4.523438-17.429688 16.285156-32 32.4375-40.078125 4.9375-2.46875 6.941406-8.476563 4.472656-13.417969-2.46875-4.9375-8.480468-6.941406-13.417968-4.46875-11.671875 5.835938-21.613282 14.238281-29.203125 24.421875-2.683594-6.773437-6.546875-13.261719-12.039063-18.757813-22.804687-22.816406-63.363281-17.226562-65.082031-16.976562-4.382813.636719-7.820313 4.078125-8.460937 8.457031-.246094 1.714844-5.835938 42.277344 16.976562 65.078125 3.03125 3.03125 6.371094 5.554688 9.886719 7.660156-15.332031 6.730469-29.242188 16.417969-41.050781 28.675782l-43.933594-74.6875c-1.796875-3.054688-5.074219-4.929688-8.621094-4.929688-3.542969 0-6.820312 1.875-8.617188 4.929688l-100 170c-.90625 1.539062-1.382812 3.289062-1.382812 5.074218 0 15.226563 9.539062 29.214844 27.070312 40h-17.070312c-5.523438 0-10 4.476563-10 10zm402-10c-50.8125 0-86.867188-19.347656-89.804688-37.605468l7.429688-12.632813c24.773438 19.941407 52.179688 30.109375 81.65625 30.238281h.71875c5.332031-.953124 41.183594 2.914063 82.375-30.238281l7.429688 12.628907c-2.9375 18.261718-38.992188 37.609374-89.804688 37.609374zm0-190.277343 72.109375 122.589843c-36.328125 30.429688-71.34375 27.421876-72.785156 27.6875-25.636719-.113281-49.632813-9.425781-71.433594-27.6875 11.015625-18.730468 59.988281-101.980468 72.109375-122.589843zm-206.011719-40.734375c10.605469-.261719 29.300781 1.019531 40.148438 11.871094 9.765625 9.765624 11.664062 26.222656 11.871093 35.882812-.265624 1.183594-.503906 2.367188-.714843 3.554688-2.191407.144531-4.375.347656-6.546875.601562-10.355469-.558594-24.199219-3.074219-32.886719-11.761719-10.855469-10.847656-12.128906-29.554687-11.871094-40.148437zm45.523438 71.964844c1.472656.054687 2.902343.085937 4.246093.085937h.296876l-.054688 8.898437c-.035156 5.523438 4.414062 10.027344 9.9375 10.0625h.0625c5.496094 0 9.964844-4.4375 10-9.9375l.058594-9.601562c28.207031 2.542969 54.09375 15.742188 72.789062 37.175781l-45.46875 77.292969c-.902344 1.539062-1.378906 3.289062-1.378906 5.070312 0 15.230469 9.539062 29.214844 27.066406 40h-126.136718c17.53125-10.785156 27.070312-24.769531 27.070312-40 0-1.78125-.476562-3.53125-1.382812-5.070312l-45.464844-77.289062c17.65625-20.253907 41.671875-33.183594 68.359375-36.6875zm-131.511719-31.230469c12.960938 22.035156 61.511719 104.574219 72.109375 122.589843-36.328125 30.429688-71.34375 27.421876-72.785156 27.6875-25.636719-.113281-49.632813-9.425781-71.433594-27.6875zm-89.804688 152.671875 7.429688-12.632813c24.773438 19.941407 52.179688 30.109375 81.65625 30.238281h.71875c5.332031-.953124 41.183594 2.914063 82.375-30.238281l7.429688 12.628907c-2.9375 18.261718-38.992188 37.609374-89.804688 37.609374s-86.867188-19.347656-89.804688-37.605468zm470.800782 57.605468c-4.648438 22.792969-24.851563 40-48.996094 40h-70c-5.523438 0-10 4.476563-10 10 0 5.523438 4.476562 10 10 10h53.820312l-7.234374 14.464844c-1.707032 3.414063-5.136719 5.535156-8.945313 5.535156h-307.28125c-3.8125 0-7.238281-2.121093-8.945313-5.53125l-7.234374-14.46875h205.820312c5.523438 0 10-4.476562 10-10 0-5.523437-4.476562-10-10-10h-222c-13.351562 0-25.910156-5.203124-35.355469-14.636718-7.039062-7.050782-11.722656-15.824219-13.648437-25.363282zm0 0"/><path d="m342 321.039062c0 5.523438-4.476562 10-10 10s-10-4.476562-10-10c0-5.523437 4.476562-10 10-10s10 4.476563 10 10zm0 0"/></svg>