<svg height="512pt" viewBox="0 -23 512 512" width="512pt" xmlns="http://www.w3.org/2000/svg"><path d="m405.5 119.460938c2.628906 0 5.210938-1.070313 7.070312-2.929688 1.859376-1.859375 2.929688-4.441406 2.929688-7.070312 0-2.632813-1.070312-5.210938-2.929688-7.070313-1.859374-1.859375-4.441406-2.929687-7.070312-2.929687s-5.210938 1.070312-7.070312 2.929687c-1.859376 1.859375-2.929688 4.4375-2.929688 7.070313 0 2.628906 1.070312 5.210937 2.929688 7.070312 1.859374 1.859375 4.441406 2.929688 7.070312 2.929688zm0 0"/><path d="m495.328125 322.835938c-.78125-.78125-1.667969-1.410157-2.625-1.886719-10.398437-9.1875-23.625-14.207031-37.625-14.207031-5.375 0-10.636719.746093-15.667969 2.175781.050782-1.085938.078125-2.175781.078125-3.273438 0-11.921875-3.148437-23.035156-8.546875-32.371093 7.550782-19.664063 11.386719-40.390626 11.386719-61.691407v-63.082031h21.691406c3.226563 0 6.253907-1.558594 8.132813-4.183594s2.371094-5.996094 1.328125-9.050781l-9.390625-27.46875v-.144531c0-3.328125-.289063-6.585938-.816406-9.765625 9.65625-8.132813 15.316406-20.113281 15.316406-32.886719 0-22.136719-16.8125-40.417969-38.335938-42.75-7.46875-13.542969-21.84375-22.25-37.664062-22.25-15.820313 0-30.195313 8.707031-37.664063 22.25-21.523437 2.335938-38.335937 20.613281-38.335937 42.75 0 14.558594 7.179687 27.828125 19.257812 35.828125-.257812 2.242187-.40625 4.515625-.40625 6.824219v45.808594h-203.03125v-24.511719c0-25.3125-20.59375-45.910157-45.910156-45.910157-5.445312 0-10.808594.964844-15.855469 2.824219-8.625-9.972656-21.253906-15.890625-34.734375-15.890625-25.316406 0-45.910156 20.597656-45.910156 45.914063 0 12.355469 5.085938 24.164062 13.71875 32.707031-3.835938 6.808594-5.882812 14.527344-5.882812 22.496094 0 25.316406 20.59375 45.910156 45.910156 45.910156h26.4375c.492187 15.882812 3.132812 31.484375 7.886718 46.523438-9.609374 10.8125-15.558593 25.703124-15.558593 42.121093 0 1.097657.027343 2.191407.078125 3.277344-5.035156-1.433594-10.300782-2.179687-15.679688-2.179687-15.203125 0-29.5 5.921874-40.25 16.671874-.054687.054688-.105468.109376-.15625.164063-22.023437 22.207031-21.96875 58.191406.167969 80.328125.792969.792969 1.683594 1.421875 2.636719 1.894531 8.597656 7.582031 18.960937 12.113281 29.667968 13.609375l9.292969 29.140625c3.324219 10.4375 12.921875 17.449219 23.875 17.449219h133.84375c5.523438 0 10-4.476562 10-10s-4.476562-10-10-10h-133.84375c-2.210937 0-4.148437-1.414062-4.824219-3.523438l-7.636718-23.949218c7.21875-1.648438 14.175781-4.707032 20.417968-9.1875 19.75 14.179687 46.609376 14.179687 66.359376 0 19.75 14.179687 46.609374 14.179687 66.359374 0 19.75 14.179687 46.609376 14.179687 66.359376 0 19.746093 14.179687 46.609374 14.179687 66.359374 0 9.875 7.089844 21.523438 10.636718 33.179688 10.636718 11.652344-.003906 23.308594-3.550781 33.183594-10.644531 6.253906 4.492188 13.21875 7.5625 20.445312 9.210938l-7.472656 23.90625c-.664062 2.125-2.605469 3.554687-4.832031 3.554687h-134.054688c-5.523437 0-10 4.476563-10 10 0 5.519532 4.476563 10 10 10h134.054688c11.019531 0 20.632812-7.066406 23.921875-17.585937l9.066406-29.007813c11.828125-1.652344 23.234375-7.003906 32.308594-16.082031.066406-.0625.128906-.132813.195312-.195313 10.621094-10.730468 16.464844-24.941406 16.464844-40.046874 0-15.203126-5.921875-29.5-16.671875-40.25zm-401.847656-7.695313c-.636719-3.078125-.96875-6.25-.96875-9.496094 0-12.953125 5.230469-24.476562 13.308593-31.738281.1875-.152344.371094-.304688.546876-.472656 5.492187-4.734375 12.234374-7.535156 19.515624-7.535156 18.402344 0 33.375 17.832031 33.375 39.746093 0 3.632813-.414062 7.203125-1.222656 10.65625-.535156.355469-1.0625.71875-1.585937 1.09375-9.605469-6.917969-21.105469-10.652343-33.179688-10.652343-10.683593 0-20.917969 2.929687-29.789062 8.398437zm162.519531-44.25c-9.695312-15.117187-25.515625-24.992187-43.371094-24.992187-11.070312 0-21.363281 3.792968-29.898437 10.28125-5.464844-11.09375-8.871094-23.078126-10.066407-35.441407h101.527344c19.269532 0 35.832032 11.796875 42.859375 28.542969-5.539062-2.183594-11.484375-3.382812-17.679687-3.382812-17.855469 0-33.675782 9.875-43.371094 24.992187zm-76.679688 36.789063c-.027343-.675782-.0625-1.351563-.0625-2.03125 0-10.382813 3.359376-19.84375 8.851563-26.933594.027344-.027344.050781-.058594.074219-.089844 6.097656-7.820312 14.796875-12.726562 24.445312-12.726562 18.398438 0 33.371094 17.832031 33.371094 39.75 0 .660156-.023438 1.320312-.050781 1.980468-8.363281 1.480469-16.242188 4.796875-23.140625 9.769532-9.609375-6.921876-21.109375-10.65625-33.179688-10.65625-3.496094 0-6.941406.324218-10.308594.9375zm86.726563-.046876c-.027344-.660156-.046875-1.324218-.046875-1.988281 0-21.914062 14.972656-39.746093 33.371094-39.746093 18.402344 0 33.371094 17.832031 33.371094 39.746093 0 .683594-.035157 1.359375-.0625 2.035157-3.375-.613282-6.828126-.9375-10.332032-.9375-12.074218 0-23.574218 3.734374-33.179687 10.652343-6.894531-4.964843-14.765625-8.277343-23.121094-9.761719zm87.925781 8.6875c-.8125-3.457031-1.230468-7.035156-1.230468-10.675781 0-21.914062 14.972656-39.746093 33.375-39.746093 18.398437 0 33.371093 17.832031 33.371093 39.746093 0 3.25-.332031 6.425781-.96875 9.511719-8.878906-5.480469-19.117187-8.414062-29.8125-8.414062-12.070312 0-23.570312 3.734374-33.179687 10.652343-.511719-.367187-1.035156-.722656-1.554688-1.074219zm-7.382812-251.320312c0-12.683594 10.316406-23 23-23 .441406 0 .878906.015625 1.3125.039062 4.445312.25 8.511718-2.472656 9.988281-6.667968 3.230469-9.191406 11.953125-15.371094 21.699219-15.371094s18.46875 6.179688 21.699218 15.371094c1.476563 4.195312 5.546876 6.925781 9.988282 6.667968.433594-.023437.871094-.039062 1.3125-.039062 12.683594 0 23 10.316406 23 23 0 4.195312-1.144532 8.226562-3.222656 11.726562-10.4375-17.015624-29.214844-28.394531-50.601563-28.394531-22.773437 0-42.582031 12.90625-52.519531 31.78125-3.609375-4.125-5.65625-9.4375-5.65625-15.113281zm8.851562 108.460938c5.523438 0 10-4.476563 10-10v-55.808594c0-21.683594 17.640625-39.324219 39.324219-39.324219s39.324219 17.644531 39.324219 39.324219v1.808594c0 1.101562.183594 2.191406.539062 3.234374l5.402344 15.804688h-17.703125c-5.523437 0-10 4.476562-10 10v73.082031c0 15.214844-2.207031 30.09375-6.570313 44.40625-8.488281-6.367187-18.683593-10.089843-29.644531-10.089843-17.851562 0-33.675781 9.875-43.371093 24.992187-.675782-1.054687-1.375-2.09375-2.109376-3.09375 0-.203125.011719-.402344.011719-.605469 0-36.640625-29.808593-66.453125-66.453125-66.453125h-112.011718c-5.523438 0-10 4.480469-10 10 0 18.808594 4.269531 37.15625 12.414062 53.839844-9.734375-11.488281-23.480469-18.679687-38.710938-18.679687-7.355468 0-14.367187 1.675781-20.75 4.699218-3.351562-12.664062-5.042968-25.738281-5.042968-39.015625v-38.121093c.015625 0 .03125.003906.046875.003906.023437 0 .046875-.003906.070312-.003906zm-233.03125-44.511719v24.511719h-15.179687l-17.382813-49.539063c2.160156-.574219 4.390625-.882813 6.652344-.882813 14.285156 0 25.910156 11.625 25.910156 25.910157zm-76.5-38.976563c9.207032 0 17.699219 4.902344 22.347656 12.828125l18.039063 51.410157c-1.265625.519531-2.402344 1.292968-3.34375 2.253906l-51.054687-18.800782c-7.460938-4.800781-11.898438-12.878906-11.898438-21.777343 0-14.289063 11.625-25.914063 25.910156-25.914063zm-18.074218 81.117188c0-4.394532 1.109374-8.65625 3.183593-12.4375l49.070313 18.070312v20.277344h-26.34375c-14.289063 0-25.910156-11.625-25.910156-25.910156zm453.351562 218.105468c-.054688.050782-.105469.101563-.15625.15625-14.410156 14.230469-37.710938 14.175782-52.050781-.164062-1.875-1.875-4.429688-2.929688-7.082031-2.929688-2.65625 0-5.199219 1.054688-7.074219 2.929688-14.394531 14.394531-37.820313 14.394531-52.214844 0-3.90625-3.90625-10.238281-3.90625-14.144531 0-14.394532 14.394531-37.820313 14.394531-52.214844 0-1.953125-1.953125-4.511719-2.929688-7.070312-2.929688-2.5625 0-5.121094.976563-7.074219 2.929688-14.394531 14.394531-37.820313 14.394531-52.214844 0-3.90625-3.90625-10.238281-3.90625-14.144531 0-14.394532 14.394531-37.820313 14.394531-52.214844 0-3.90625-3.90625-10.238281-3.90625-14.144531 0-14.394531 14.394531-37.820313 14.394531-52.214844 0-3.90625-3.90625-10.238281-3.90625-14.144531 0-14.394532 14.394531-37.820313 14.394531-52.214844 0-.597656-.597656-1.25-1.101562-1.941406-1.515625-12.421875-14.492187-11.777344-36.40625 1.941406-50.121094.046875-.046875.089844-.09375.136719-.140625 6.957031-6.882812 16.167969-10.667968 25.957031-10.667968 9.863281 0 19.136719 3.839843 26.109375 10.816406 1.875 1.875 4.417969 2.925781 7.070313 2.925781 2.652343 0 5.195312-1.050781 7.070312-2.925781 6.976562-6.976563 16.246094-10.816406 26.109375-10.816406s19.136719 3.839843 26.109375 10.816406c1.875 1.875 4.417969 2.925781 7.070312 2.925781 2.652344 0 5.195313-1.050781 7.070313-2.925781 6.972656-6.976563 16.246094-10.816406 26.109375-10.816406 9.859375 0 19.132812 3.839843 26.105469 10.816406 1.875 1.875 4.421875 2.925781 7.074219 2.925781 2.648437 0 5.195312-1.050781 7.070312-2.925781 6.972656-6.976563 16.246094-10.816406 26.105469-10.816406 9.863281 0 19.136719 3.839843 26.109375 10.816406 1.875 1.875 4.417968 2.925781 7.070312 2.925781s5.195313-1.050781 7.070313-2.925781c6.976562-6.976563 16.246093-10.816406 26.109375-10.816406 9.863281 0 19.136718 3.839843 26.109375 10.816406 1.875 1.875 4.417969 2.925781 7.070312 2.925781 2.652344 0 5.195313-1.050781 7.070313-2.925781 6.972656-6.976563 16.246094-10.816406 26.109375-10.816406 9.859375 0 19.132812 3.839843 26.105469 10.816406 1.875 1.875 4.433593 2.925781 7.085937 2.925781 2.648437 0 5.195313-1.050781 7.070313-2.925781 6.972656-6.976563 16.246093-10.816406 26.105468-10.816406 9.863282 0 19.136719 3.839843 26.109375 10.816406.589844.589844 1.246094 1.09375 1.941407 1.511718 5.742187 6.6875 8.875 15.109376 8.875 24.015626.007812 9.863281-3.832032 19.132812-10.804688 26.109374zm0 0"/><path d="m256.128906 446c-2.640625 0-5.207031 1.070312-7.070312 2.929688-1.867188 1.859374-2.929688 4.441406-2.929688 7.070312s1.0625 5.210938 2.929688 7.070312c1.863281 1.859376 4.441406 2.929688 7.070312 2.929688 2.632813 0 5.210938-1.070312 7.070313-2.929688 1.859375-1.859374 2.929687-4.441406 2.929687-7.070312s-1.070312-5.210938-2.929687-7.070312c-1.859375-1.859376-4.4375-2.929688-7.070313-2.929688zm0 0"/></svg>