<svg xmlns="http://www.w3.org/2000/svg" height="512pt" version="1.1" viewBox="0 -60 512 512" width="512pt">
<g id="surface1">
<path d="M 413.53125 285.167969 C 412.878906 285.167969 412.21875 285.097656 411.570312 284.96875 C 410.9375 284.839844 410.308594 284.648438 409.699219 284.398438 C 409.097656 284.148438 408.519531 283.839844 407.980469 283.480469 C 407.429688 283.117188 406.917969 282.699219 406.449219 282.238281 C 404.589844 280.378906 403.53125 277.800781 403.53125 275.167969 C 403.53125 274.519531 403.589844 273.859375 403.71875 273.210938 C 403.847656 272.570312 404.039062 271.9375 404.289062 271.339844 C 404.539062 270.738281 404.847656 270.160156 405.210938 269.617188 C 405.578125 269.070312 405.988281 268.558594 406.449219 268.097656 C 406.917969 267.640625 407.429688 267.21875 407.976562 266.847656 C 408.519531 266.488281 409.097656 266.179688 409.699219 265.929688 C 410.308594 265.679688 410.9375 265.488281 411.566406 265.359375 C 412.859375 265.097656 414.1875 265.097656 415.476562 265.359375 C 416.117188 265.488281 416.75 265.679688 417.347656 265.929688 C 417.949219 266.179688 418.527344 266.488281 419.078125 266.847656 C 419.617188 267.21875 420.136719 267.640625 420.597656 268.097656 C 421.058594 268.558594 421.476562 269.070312 421.839844 269.617188 C 422.199219 270.160156 422.507812 270.738281 422.757812 271.339844 C 423.007812 271.941406 423.199219 272.570312 423.328125 273.210938 C 423.457031 273.859375 423.527344 274.519531 423.527344 275.167969 C 423.527344 275.820312 423.457031 276.480469 423.328125 277.117188 C 423.199219 277.761719 423.007812 278.390625 422.757812 278.988281 C 422.507812 279.589844 422.199219 280.179688 421.839844 280.71875 C 421.476562 281.269531 421.058594 281.777344 420.597656 282.238281 C 420.136719 282.699219 419.617188 283.117188 419.078125 283.480469 C 418.527344 283.839844 417.949219 284.148438 417.347656 284.398438 C 416.746094 284.648438 416.117188 284.839844 415.476562 284.96875 C 414.839844 285.097656 414.179688 285.167969 413.53125 285.167969 Z M 413.53125 285.167969 " />
<path d="M 502 334.886719 L 465.832031 334.886719 C 472.820312 326 476.996094 314.800781 476.996094 302.644531 L 476.996094 229.871094 C 476.996094 224.347656 472.519531 219.871094 466.996094 219.871094 L 446.671875 219.871094 C 448.578125 218.332031 450.417969 216.679688 452.179688 214.910156 C 487.742188 179.171875 474.84375 111.011719 474.277344 108.125 C 473.496094 104.148438 470.390625 101.035156 466.410156 100.246094 C 463.539062 99.675781 395.652344 86.699219 360.058594 122.472656 C 353.675781 128.886719 348.855469 136.34375 345.242188 144.28125 C 341.632812 136.34375 336.808594 128.886719 330.429688 122.472656 C 313.269531 105.230469 286.125 96.636719 251.839844 97.582031 C 251.664062 97.476562 251.492188 97.367188 251.320312 97.265625 C 248.226562 77.835938 236.027344 60.417969 218.519531 50.917969 C 199.390625 40.535156 177.261719 41.035156 156.832031 52.066406 C 136.21875 36.492188 108.171875 33.796875 84.765625 45.730469 C 57.539062 59.613281 43.085938 89.835938 48.789062 119.324219 C 41.738281 126.808594 36.886719 136.417969 34.632812 147.46875 C 30.542969 167.585938 35.925781 188.066406 48.414062 201.289062 C 47.933594 207.597656 48.417969 213.875 49.832031 219.871094 L 45.003906 219.871094 C 39.480469 219.871094 35.003906 224.347656 35.003906 229.871094 L 35.003906 302.644531 C 35.003906 314.800781 39.179688 326 46.167969 334.886719 L 10 334.886719 C 4.476562 334.886719 0 339.367188 0 344.886719 L 0 382.617188 C 0 388.140625 4.476562 392.617188 10 392.617188 L 502 392.617188 C 507.523438 392.617188 512 388.140625 512 382.617188 L 512 344.886719 C 512 339.367188 507.523438 334.886719 502 334.886719 Z M 218.355469 219.871094 C 217.3125 216.828125 216.144531 213.234375 214.960938 209.246094 C 220.6875 208.4375 225.980469 207.25 230.859375 205.742188 C 232.90625 208.875 235.21875 211.808594 238.304688 214.910156 C 240.066406 216.679688 241.90625 218.332031 243.816406 219.871094 Z M 119.902344 175.96875 L 122.546875 170.035156 C 131.222656 171.9375 146.726562 176.898438 159.839844 189.40625 C 162.910156 192.339844 167.5 193.011719 171.277344 191.082031 C 175.0625 189.15625 177.21875 185.054688 176.652344 180.847656 C 174.273438 163.050781 179.402344 147.496094 182.960938 139.308594 L 189.257812 140.652344 C 183.203125 166.164062 189.996094 197.242188 197.253906 219.871094 L 172.1875 219.871094 C 158.933594 203.375 140.496094 184.652344 119.902344 175.96875 Z M 374.234375 136.578125 C 396.585938 114.117188 439.097656 116.785156 455.671875 118.839844 C 457.71875 135.496094 460.390625 178.304688 438.003906 200.804688 C 419.832031 219.0625 388.339844 220.71875 368.289062 219.59375 L 394.984375 192.898438 C 398.890625 188.992188 398.890625 182.660156 394.984375 178.753906 C 391.078125 174.851562 384.75 174.851562 380.84375 178.753906 L 355.398438 204.199219 C 355.328125 202.488281 355.277344 200.707031 355.257812 198.867188 C 355.269531 197.800781 355.265625 196.714844 355.257812 195.613281 C 355.429688 176.207031 359.125 151.765625 374.234375 136.578125 Z M 335.230469 195.578125 C 335.21875 196.703125 335.21875 197.816406 335.226562 198.910156 C 335.207031 200.734375 335.160156 202.503906 335.089844 204.203125 L 309.640625 178.753906 C 305.734375 174.851562 299.40625 174.851562 295.5 178.753906 C 291.59375 182.660156 291.59375 188.992188 295.5 192.898438 L 322.191406 219.59375 C 302.140625 220.714844 270.648438 219.0625 252.480469 200.804688 C 251.335938 199.648438 250.351562 198.535156 249.460938 197.394531 C 268.335938 185.722656 277.339844 168.101562 279.128906 152.453125 C 280.511719 140.277344 277.914062 128.449219 272.085938 118.304688 C 288.054688 120.035156 304.710938 124.984375 316.25 136.578125 C 331.355469 151.757812 335.050781 176.179688 335.230469 195.578125 Z M 68.804688 199.125 C 69.386719 195.625 68.070312 192.085938 65.347656 189.8125 C 54.179688 180.484375 51.71875 163.824219 54.230469 151.460938 C 56.03125 142.636719 60.179688 135.332031 66.230469 130.335938 C 69.308594 127.792969 70.578125 123.664062 69.464844 119.832031 C 63.03125 97.707031 73.285156 74.035156 93.851562 63.546875 C 112.03125 54.273438 134.167969 57.5 148.941406 71.5625 C 152.320312 74.78125 157.480469 75.230469 161.367188 72.648438 C 177.390625 62.003906 194.300781 60.527344 208.980469 68.496094 C 221.984375 75.554688 231.019531 89.574219 231.996094 104.21875 C 232.234375 107.789062 234.367188 110.964844 237.582031 112.535156 C 252.75 119.949219 261.054688 134.378906 259.257812 150.1875 C 257.40625 166.378906 243.328125 185.6875 210.058594 189.707031 C 206.449219 171.867188 204.957031 151.726562 211.375 137.246094 C 212.597656 134.492188 212.511719 131.335938 211.140625 128.652344 C 209.773438 125.96875 207.269531 124.042969 204.320312 123.414062 L 179.582031 118.136719 C 175.449219 117.25 171.210938 119.0625 168.988281 122.660156 C 168.460938 123.511719 158.792969 139.433594 156.515625 162.089844 C 136.851562 150.601562 118.292969 149.046875 117.292969 148.972656 C 113.074219 148.664062 109.121094 151.015625 107.402344 154.875 L 97.109375 177.980469 C 95.886719 180.734375 95.964844 183.890625 97.328125 186.578125 C 98.695312 189.265625 101.195312 191.191406 104.140625 191.824219 C 116.640625 194.515625 131.035156 204.292969 145.726562 219.871094 L 70.691406 219.871094 C 68.289062 213.480469 67.617188 206.292969 68.804688 199.125 Z M 55.003906 302.644531 L 55.003906 285.164062 L 374.03125 285.164062 C 379.550781 285.164062 384.03125 280.6875 384.03125 275.164062 C 384.03125 269.644531 379.550781 265.164062 374.03125 265.164062 L 55.003906 265.164062 L 55.003906 239.871094 L 456.996094 239.871094 L 456.996094 302.644531 C 456.996094 320.421875 442.53125 334.886719 424.75 334.886719 L 87.25 334.886719 C 69.46875 334.886719 55.003906 320.421875 55.003906 302.644531 Z M 492 372.617188 L 20 372.617188 L 20 354.890625 L 492 354.890625 Z M 492 372.617188 " />
<path d="M 350.015625 123.894531 C 347.445312 123.894531 344.886719 122.910156 342.941406 120.96875 L 260.875 38.898438 C 257.265625 35.289062 256.953125 29.539062 260.15625 25.558594 C 261.707031 23.632812 263.378906 21.769531 265.125 20.023438 C 278.035156 7.113281 295.207031 0 313.46875 0 C 313.472656 0 313.46875 0 313.472656 0 C 331.734375 0 348.902344 7.113281 361.816406 20.027344 C 388.476562 46.683594 388.476562 90.0625 361.816406 116.71875 C 361.816406 116.722656 361.816406 116.722656 361.816406 116.722656 C 360.070312 118.46875 358.207031 120.136719 356.285156 121.683594 C 354.445312 123.164062 352.226562 123.894531 350.015625 123.894531 Z M 354.746094 109.648438 L 354.753906 109.648438 Z M 281.941406 31.683594 L 350.160156 99.898438 C 366.496094 80.917969 365.667969 52.160156 347.675781 34.167969 C 338.535156 25.03125 326.390625 20 313.46875 20 C 301.773438 20 290.710938 24.121094 281.941406 31.683594 Z M 281.941406 31.683594 " />
</g>
</svg>